<svg width="20" height="21" viewBox="0 0 20 21" fill="none" xmlns="http://www.w3.org/2000/svg">
<path d="M18.75 5.25C17.5569 5.24876 16.413 4.77425 15.5694 3.93061C14.7257 3.08697 14.2512 1.94309 14.25 0.75C14.25 0.551088 14.171 0.360322 14.0303 0.21967C13.8897 0.0790176 13.6989 0 13.5 0H9.75C9.55109 0 9.36032 0.0790176 9.21967 0.21967C9.07902 0.360322 9 0.551088 9 0.75V13.125C8.99985 13.4605 8.90967 13.7898 8.73887 14.0786C8.56807 14.3674 8.32291 14.6051 8.02896 14.7668C7.73501 14.9286 7.40304 15.0085 7.06768 14.9983C6.73232 14.988 6.40586 14.888 6.12235 14.7085C5.83883 14.5291 5.60865 14.2769 5.45582 13.9782C5.30299 13.6795 5.2331 13.3453 5.25345 13.0104C5.2738 12.6755 5.38364 12.3522 5.57151 12.0742C5.75939 11.7962 6.01841 11.5738 6.32156 11.43C6.4498 11.3691 6.55813 11.2731 6.63397 11.1532C6.70981 11.0332 6.75005 10.8941 6.75 10.7522V6.75C6.75005 6.64037 6.72606 6.53206 6.67972 6.4327C6.63339 6.33334 6.56584 6.24535 6.48182 6.17492C6.3978 6.10449 6.29937 6.05333 6.19345 6.02505C6.08752 5.99678 5.97669 5.99206 5.86875 6.01125C2.52281 6.6075 0 9.66562 0 13.125C0 15.0147 0.750667 16.8269 2.08686 18.1631C3.42306 19.4993 5.23533 20.25 7.125 20.25C9.01467 20.25 10.8269 19.4993 12.1631 18.1631C13.4993 16.8269 14.25 15.0147 14.25 13.125V9.40219C15.639 10.1269 17.1833 10.5036 18.75 10.5C18.9489 10.5 19.1397 10.421 19.2803 10.2803C19.421 10.1397 19.5 9.94891 19.5 9.75V6C19.5 5.80109 19.421 5.61032 19.2803 5.46967C19.1397 5.32902 18.9489 5.25 18.75 5.25ZM18 8.96625C16.5343 8.83637 15.1309 8.31329 13.9378 7.45219C13.8257 7.37156 13.6934 7.32347 13.5557 7.31321C13.418 7.30295 13.2801 7.33092 13.1572 7.39404C13.0344 7.45716 12.9314 7.55298 12.8595 7.67093C12.7876 7.78888 12.7497 7.92438 12.75 8.0625V13.125C12.75 14.6168 12.1574 16.0476 11.1025 17.1025C10.0476 18.1574 8.61684 18.75 7.125 18.75C5.63316 18.75 4.20242 18.1574 3.14752 17.1025C2.09263 16.0476 1.5 14.6168 1.5 13.125C1.5 10.6969 3.06 8.51906 5.25 7.725V10.3191C4.76517 10.643 4.37254 11.087 4.11037 11.6079C3.84821 12.1287 3.72545 12.7086 3.75407 13.2909C3.78268 13.8733 3.9617 14.4384 4.27366 14.931C4.58562 15.4236 5.01989 15.827 5.53414 16.1018C6.04839 16.3767 6.62508 16.5136 7.208 16.4993C7.79091 16.4849 8.36017 16.3198 8.86028 16.02C9.3604 15.7202 9.77431 15.296 10.0617 14.7886C10.349 14.2812 10.5001 13.7081 10.5 13.125V1.5H12.7969C12.9655 2.82101 13.568 4.04866 14.5097 4.99034C15.4513 5.93203 16.679 6.53446 18 6.70312V8.96625Z" fill="white"/>
</svg>
